{"title":"12 Years a Slave(2013).mp4","uid":9679835,"size":1696186927,"categoryP":"video","categoryS":"hd___movies","magnet":"?xt=urn:btih:cddbc119c1d164d190a4d8556ab797d568d8f366&amp;dn=12+Years+a+Slave%282013%29.mp4&amp;tr=udp%3A%2F%2Ftracker.openbittorrent.com%3A80&amp;tr=udp%3A%2F%2Fopen.demonii.com%3A1337&amp;tr=udp%3A%2F%2Ftracker.coppersurfer.tk%3A6969&amp;tr=udp%3A%2F%2Fexodus.desync.com%3A6969","seeders":1,"leechers":0,"uploader":"PapaFatHead","files":1,"time":1393645239,"description":"IMDB Link                      : http://www.imdb.com/title/tt2024544/\n\nComplete name                  : 12 Years A Slave(2013).mp4\nFormat                         : MPEG-4\nFormat profile                 : Base Media / Version 2\nCodec ID                       : mp42\nFile size                      : 1.58 GiB\nDuration                       : 2h 14mn\nOverall bit rate mode          : Variable\nOverall bit rate               : 1 686 Kbps\n\n\nVideo\nID                             : 1\nFormat                         : AVC\nFormat/Info                    : Advanced Video Codec\nFormat profile                 : &lt;a class=&quot;__cf_email__&quot; href=&quot;/cdn-cgi/l/email-protection&quot; data-cfemail=&quot;1557746670797c7b705559263b25&quot;&gt;[email&amp;#160;protected]&lt;/a&gt;&lt;script cf-hash='f9e31' type=&quot;text/javascript&quot;&gt;\n/* &lt;![CDATA[ */!function(){try{var t=&quot;currentScript&quot;in document?document.currentScript:function(){for(var t=document.getElementsByTagName(&quot;script&quot;),e=t.length;e--;)if(t[e].getAttribute(&quot;cf-hash&quot;))return t[e]}();if(t&amp;&amp;t.previousSibling){var e,r,n,i,c=t.previousSibling,a=c.getAttribute(&quot;data-cfemail&quot;);if(a){for(e=&quot;&quot;,r=parseInt(a.substr(0,2),16),n=2;a.length-n;n+=2)i=parseInt(a.substr(n,2),16)^r,e+=String.fromCharCode(i);e=document.createTextNode(e),c.parentNode.replaceChild(e,c)}}}catch(u){}}();/* ]]&gt; */&lt;/script&gt;\nFormat settings, CABAC         : No\nFormat settings, ReFrames      : 2 frames\nCodec ID                       : avc1\nCodec ID/Info                  : Advanced Video Coding\nDuration                       : 2h 14mn\nBit rate                       : 1 522 Kbps\nWidth                          : 1 150 pixels\nHeight                         : 480 pixels\nDisplay aspect ratio           : 2.40:1\nOriginal display aspect ratio  : 2.40:1\nFrame rate mode                : Variable\nFrame rate                     : 23.976 fps\nMinimum frame rate             : 23.810 fps\nMaximum frame rate             : 30.000 fps\nColor space                    : YUV\nChroma subsampling             : 4:2:0\nBit depth                      : 8 bits\nScan type                      : Progressive\nBits/(Pixel*Frame)             : 0.115\nStream size                    : 1.43 GiB (90%)\nWriting library                : x264 core 130 r2273 b3065e6\n\nColor primaries                : BT.709\nTransfer characteristics       : BT.709\nMatrix coefficients            : BT.709\n\nAudio\nID                             : 2\nFormat                         : AAC\nFormat/Info                    : Advanced Audio Codec\nFormat profile                 : LC\nCodec ID                       : 40\nDuration                       : 2h 14mn\nBit rate mode                  : Variable\nBit rate                       : 160 Kbps\nMaximum bit rate               : 332 Kbps\nChannel(s)                     : 2 channels\nChannel positions              : Front: L R\nSampling rate                  : 48.0 KHz\nCompression mode               : Lossy\nStream size                    : 153 MiB (9%)\nLanguage                       : English","torrent":{"xt":"urn:btih:cddbc119c1d164d190a4d8556ab797d568d8f366","amp;dn":"12+Years+a+Slave%282013%29.mp4","amp;tr":["udp%3A%2F%2Ftracker.openbittorrent.com%3A80","udp%3A%2F%2Fopen.demonii.com%3A1337","udp%3A%2F%2Ftracker.coppersurfer.tk%3A6969","udp%3A%2F%2Fexodus.desync.com%3A6969"],"infoHash":"cddbc119c1d164d190a4d8556ab797d568d8f366","infoHashBuffer":{"type":"Buffer","data":[205,219,193,25,193,209,100,209,144,164,216,85,106,183,151,213,104,216,243,102]},"announce":[],"urlList":[]}}